HIERARCHY
ROOT SpineBase
{
  OFFSET 0.000000 0.000000 0.000000
  CHANNELS 6 Xposition Yposition Zposition Zrotation Xrotation Yrotation
  JOINT SpineMid
  {
    OFFSET 0.000000 33.955607 0.000000
    CHANNELS 3 Zrotation Xrotation Yrotation
    JOINT SpineShoulder
    {
      OFFSET 0.059089 25.200734 -0.927022
      CHANNELS 3 Zrotation Xrotation Yrotation
      JOINT Neck
      {
        OFFSET 0.053769 8.333721 -0.693313
        CHANNELS 3 Zrotation Xrotation Yrotation
        JOINT Head
        {
          OFFSET -7.382473 13.524353 1.602974
          CHANNELS 3 Zrotation Xrotation Yrotation
          End Site
          {
            OFFSET 0 0 0
          }
        }
      }
      JOINT ShoulderLeft
      {
        OFFSET -10.069512 -6.709095 8.692025
        CHANNELS 3 Zrotation Xrotation Yrotation
        JOINT ElbowLeft
        {
          OFFSET -0.762624 -29.355631 -5.690948
          CHANNELS 3 Zrotation Xrotation Yrotation
          JOINT WristLeft
          {
            OFFSET -2.222347 -26.434447 -0.373516
            CHANNELS 3 Zrotation Xrotation Yrotation
            JOINT HandLeft
            {
              OFFSET -0.248097 -7.084917 1.246196
              CHANNELS 3 Zrotation Xrotation Yrotation
              JOINT HandTipLeft
              {
                OFFSET -0.010459 -2.922502 -0.897790
                CHANNELS 3 Zrotation Xrotation Yrotation
                End Site
                {
                  OFFSET 0 0 0
                }
              }
              JOINT ThumbLeft
              {
                OFFSET 2.177213 0.397350 -5.858517
                CHANNELS 3 Zrotation Xrotation Yrotation
                End Site
                {
                  OFFSET 0 0 0
                }
              }
            }
          }
        }
      }
      JOINT ShoulderRight
      {
        OFFSET 11.122910 -3.545804 -10.914212
        CHANNELS 3 Zrotation Xrotation Yrotation
        JOINT ElbowRight
        {
          OFFSET 5.267706 -22.637756 -6.679531
          CHANNELS 3 Zrotation Xrotation Yrotation
          JOINT WristRight
          {
            OFFSET -4.781493 -29.865540 -7.557726
            CHANNELS 3 Zrotation Xrotation Yrotation
            JOINT HandRight
            {
              OFFSET -1.288506 -4.061600 -0.885238
              CHANNELS 3 Zrotation Xrotation Yrotation
              JOINT HandTipRight
              {
                OFFSET -2.185438 -5.230209 -1.764822
                CHANNELS 3 Zrotation Xrotation Yrotation
                End Site
                {
                  OFFSET 0 0 0
                }
              }
              JOINT ThumbRight
              {
                OFFSET 3.286027 -0.988212 0.528937
                CHANNELS 3 Zrotation Xrotation Yrotation
                End Site
                {
                  OFFSET 0 0 0
                }
              }
            }
          }
        }
      }
    }
  }
  JOINT HipLeft
  {
    OFFSET -4.184635 -0.076249 0.878667
    CHANNELS 3 Zrotation Xrotation Yrotation
    JOINT KneeLeft
    {
      OFFSET 2.467466 -42.549209 -0.523288
      CHANNELS 3 Zrotation Xrotation Yrotation
      JOINT AnkleLeft
      {
        OFFSET 11.905966 -32.809873 2.295849
        CHANNELS 3 Zrotation Xrotation Yrotation
        JOINT FootLeft
        {
          OFFSET 0.154478 -8.190733 -5.906868
          CHANNELS 3 Zrotation Xrotation Yrotation
          End Site
          {
            OFFSET 0 0 0
          }
        }
      }
    }
  }
  JOINT HipRight
  {
    OFFSET 4.807620 2.442979 -8.713101
    CHANNELS 3 Zrotation Xrotation Yrotation
    JOINT KneeRight
    {
      OFFSET 9.425654 -40.166372 -8.420477
      CHANNELS 3 Zrotation Xrotation Yrotation
      JOINT AnkleRight
      {
        OFFSET 7.817786 -33.282662 3.539287
        CHANNELS 3 Zrotation Xrotation Yrotation
        JOINT FootRight
        {
          OFFSET -4.191649 -7.451708 -2.435733
          CHANNELS 3 Zrotation Xrotation Yrotation
          End Site
          {
            OFFSET 0 0 0
          }
        }
      }
    }
  }
}
MOTION
Frames: 14
Frame Time: 0.033333
-28.050783 83.109181 328.061153 4.526787 -2.612866 47.745762 -0.023703 -1.318602 -47.418924 0.141195 -0.036077 0.277677 7.235027 -1.327414 -4.514901 0.000000 0.000000 0.000000 0.453426 2.804881 -1.810275 -1.818444 1.033094 1.041355 6.085903 9.703135 0.712204 -7.281729 -12.060655 -2.793117 0.000000 0.000000 0.000000 0.000000 0.000000 0.000000 -1.028598 1.578797 -2.328216 -1.795263 -0.126272 1.461220 2.752561 -16.501365 6.183518 5.261803 3.717945 -3.434783 0.000000 0.000000 0.000000 0.000000 0.000000 0.000000 -0.721676 4.224672 -47.653612 -0.864502 -0.514348 -0.260878 -19.485996 16.756179 16.024897 0.000000 0.000000 0.000000 -0.099341 3.351115 -48.182419 -1.984007 0.413283 0.521831 -0.880717 -1.528738 1.136119 0.000000 0.000000 0.000000
-28.176390 83.175257 328.090012 5.698590 -3.451857 47.272404 0.103698 -1.327899 -46.831800 0.150847 -0.028892 0.338199 6.833223 -2.193483 -5.475291 0.000000 0.000000 0.000000 1.443401 3.769671 -2.527561 -3.040309 0.490978 1.504381 5.403015 10.311848 0.648594 -8.467731 -16.617125 -2.735282 0.000000 0.000000 0.000000 0.000000 0.000000 0.000000 -0.506242 1.970083 -3.097860 -3.139716 0.130867 1.973492 5.318586 -18.983966 7.187475 3.726138 5.134047 -3.527196 0.000000 0.000000 0.000000 0.000000 0.000000 0.000000 -0.646481 5.627407 -47.117607 -1.130072 0.099058 0.020632 -23.192849 19.760448 18.930297 0.000000 0.000000 0.000000 0.056812 4.482844 -47.754218 -2.449178 0.339190 0.603016 -0.792678 -1.831346 1.278323 0.000000 0.000000 0.000000
-28.348629 83.112893 328.132677 6.957495 -4.366145 46.056864 0.209617 -1.229451 -45.480063 0.107335 -0.018834 0.395483 6.170978 -3.796211 -6.699324 0.000000 0.000000 0.000000 3.015995 4.050831 -3.361071 -4.628501 0.371418 2.076120 4.801331 10.657450 0.619856 -9.165738 -20.196646 -2.833907 0.000000 0.000000 0.000000 0.000000 0.000000 0.000000 0.335212 2.002736 -4.036720 -4.360101 0.823271 2.523608 4.588448 -20.731394 8.220316 4.801791 5.619365 -4.347079 0.000000 0.000000 0.000000 0.000000 0.000000 0.000000 -0.538796 6.882398 -45.841617 -1.635020 -0.036881 0.017459 -24.724448 23.132278 20.500393 0.000000 0.000000 0.000000 0.124958 5.608131 -46.605171 -4.018491 0.615574 0.694160 0.658394 -2.154857 1.201050 0.000000 0.000000 0.000000
-28.500772 82.964755 328.154917 8.209472 -5.218779 44.329100 0.268820 -1.111187 -43.601167 0.062589 -0.017009 0.451148 4.622417 -5.663580 -7.922400 0.000000 0.000000 0.000000 4.904651 4.714769 -4.361093 -6.821166 -1.110298 2.860338 5.180339 11.255526 0.500010 -10.354490 -23.167464 -3.066268 0.000000 0.000000 0.000000 0.000000 0.000000 0.000000 1.280309 1.728119 -5.042430 -5.329533 1.791482 3.046910 2.633896 -19.835188 8.186997 6.492680 3.990555 -4.536765 0.000000 0.000000 0.000000 0.000000 0.000000 0.000000 -0.585702 7.914049 -44.046363 -1.763461 -0.723143 -0.179342 -24.554782 26.089540 20.492075 0.000000 0.000000 0.000000 -0.040486 6.617689 -44.937984 -5.123874 1.268645 0.930856 1.914424 -2.471591 0.785426 0.000000 0.000000 0.000000
-28.647458 82.736696 328.163734 9.422909 -6.002951 42.263923 0.281940 -1.013340 -41.372160 -0.003441 -0.017744 0.504355 3.131097 -7.448860 -9.107883 0.000000 0.000000 0.000000 6.495312 3.701541 -5.040607 -8.699454 0.719623 3.310558 4.917954 5.473858 1.464843 -12.895320 -24.036813 -2.802444 0.000000 0.000000 0.000000 0.000000 0.000000 0.000000 2.345464 1.499127 -6.052692 -5.981271 2.622683 3.449689 0.415387 -17.628377 7.703790 5.613894 4.829855 -4.412051 0.000000 0.000000 0.000000 0.000000 0.000000 0.000000 -0.802143 8.732513 -41.899385 -2.414058 -0.713032 -0.192852 -27.440127 30.380793 23.312703 0.000000 0.000000 0.000000 -0.452165 7.415808 -42.932443 -6.180029 2.232814 1.270218 3.376734 -2.556640 0.049114 0.000000 0.000000 0.000000
-28.772634 82.411722 328.184634 10.492560 -6.688858 39.592575 0.274259 -0.823830 -38.546994 -0.100984 -0.003296 0.545357 1.648429 -9.662684 -10.376688 0.000000 0.000000 0.000000 7.292172 1.821896 -5.234018 -9.440687 2.232130 3.719183 5.699104 2.273781 2.140189 -16.289105 -24.358088 -2.643107 0.000000 0.000000 0.000000 0.000000 0.000000 0.000000 3.418066 0.190883 -7.068290 -6.386463 4.657452 3.842294 -1.913286 -16.035970 7.488133 6.760231 3.652949 -4.501838 0.000000 0.000000 0.000000 0.000000 0.000000 0.000000 -1.168955 9.276844 -39.137594 -3.247088 -0.786550 -0.271451 -25.233505 32.620288 21.822678 0.000000 0.000000 0.000000 -1.039471 8.059065 -40.281592 -7.080037 3.256626 1.626534 4.888281 -2.442363 -0.875129 0.000000 0.000000 0.000000
-28.856372 81.996990 328.191647 11.655267 -7.582293 36.208517 0.299947 -1.059613 -34.939288 -0.041157 -0.208153 0.633969 -0.859158 -10.033007 -11.261383 0.000000 0.000000 0.000000 7.101531 0.109163 -5.337693 -10.441518 4.015866 4.137330 14.222507 -6.372777 5.251916 -24.104817 -16.164262 -2.116848 0.000000 0.000000 0.000000 0.000000 0.000000 0.000000 4.001001 -0.761972 -8.262353 -6.669967 6.870435 4.238559 -5.187525 -14.413597 7.420239 8.585579 1.965760 -4.520569 0.000000 0.000000 0.000000 0.000000 0.000000 0.000000 -1.698231 9.913730 -35.615251 -4.272903 -0.873024 -0.387823 -20.207873 35.195927 18.060551 0.000000 0.000000 0.000000 -1.839345 8.969025 -36.817210 -7.828938 4.278185 1.964766 5.739166 -2.931290 -1.275059 0.000000 0.000000 0.000000
-28.901325 81.582355 328.245458 12.743028 -8.449792 32.455021 0.225824 -1.172955 -30.950663 -0.099995 -0.165463 0.681999 -3.101841 -10.450230 -11.962678 0.000000 0.000000 0.000000 6.375414 -1.524226 -5.149659 -10.476456 5.091903 4.411566 26.267123 -18.652582 11.741195 -36.155000 -4.025530 2.766327 0.000000 0.000000 0.000000 0.000000 0.000000 0.000000 4.449132 -2.190849 -9.230899 -6.495232 9.296668 4.421236 -8.497853 -13.126239 7.510768 9.229464 0.538252 -3.933242 0.000000 0.000000 0.000000 0.000000 0.000000 0.000000 -2.419591 10.458664 -31.688187 -5.167367 -0.834027 -0.460655 -17.164073 35.899451 15.763651 0.000000 0.000000 0.000000 -2.866449 9.964131 -32.861742 -8.279443 5.056288 2.194167 6.171533 -3.104142 -1.685893 0.000000 0.000000 0.000000
-28.846168 81.174599 328.322340 13.642138 -9.215436 28.801827 0.116030 -1.265125 -27.075862 -0.180307 -0.045254 0.708019 -5.047755 -10.453869 -12.346865 0.000000 0.000000 0.000000 5.114787 -3.533952 -4.642843 -10.065616 8.260652 4.175159 44.119848 -32.875296 25.351435 -48.523876 10.467197 11.839037 0.000000 0.000000 0.000000 0.000000 0.000000 0.000000 4.700339 -3.959118 -10.003797 -5.605346 11.646806 4.330072 -12.743795 -12.450667 8.057317 7.469118 1.771899 -3.335368 0.000000 0.000000 0.000000 0.000000 0.000000 0.000000 -3.247671 10.864177 -27.842973 -5.931956 -0.805183 -0.539595 -14.130321 34.126699 13.393101 0.000000 0.000000 0.000000 -4.028058 10.857137 -28.921431 -8.502948 5.561134 2.304386 6.459353 -2.986665 -2.083888 0.000000 0.000000 0.000000
-28.694019 80.796777 328.365498 14.511259 -10.027059 25.249583 0.071809 -1.316642 -23.294102 -0.229341 0.105090 0.728787 -6.181553 -10.931231 -12.964634 0.000000 0.000000 0.000000 3.598135 -5.251697 -4.120600 -8.632036 11.404854 3.605907 47.343370 -33.973690 28.260389 -48.945143 14.764254 11.057875 0.000000 0.000000 0.000000 0.000000 0.000000 0.000000 5.065943 -5.722983 -10.792013 -4.789200 13.407944 4.289687 -19.291738 -14.456955 9.901776 8.183850 3.912318 -3.921406 0.000000 0.000000 0.000000 0.000000 0.000000 0.000000 -4.284510 11.221467 -24.037790 -6.505973 -0.548222 -0.559339 -11.284919 29.676260 11.054206 0.000000 0.000000 0.000000 -5.369539 11.757907 -24.986247 -8.568211 5.919221 2.343673 6.586599 -2.849917 -2.357527 0.000000 0.000000 0.000000
-28.411471 80.492852 328.395539 15.187239 -10.669638 22.267179 0.031060 -1.240541 -20.132284 -0.298976 0.305690 0.729947 -6.728770 -11.391864 -13.407589 0.000000 0.000000 0.000000 2.098724 -6.747175 -3.578468 -6.885015 14.596712 2.749038 29.215077 -24.464955 16.084338 -32.275209 7.199203 0.091970 0.000000 0.000000 0.000000 0.000000 0.000000 0.000000 5.578991 -7.438999 -11.414398 -3.924898 14.213952 4.320398 -21.767613 -14.371382 10.914634 7.683544 3.498319 -3.343020 0.000000 0.000000 0.000000 0.000000 0.000000 0.000000 -5.469596 11.434522 -20.771713 -6.733476 -0.276692 -0.579487 -8.506185 22.951336 8.751536 0.000000 0.000000 0.000000 -6.734693 12.503137 -21.566735 -8.402644 6.042506 2.275045 6.546259 -2.491820 -2.601427 0.000000 0.000000 0.000000
-28.036838 80.322110 328.423971 15.711128 -11.122998 20.111176 0.034664 -1.218637 -17.837660 -0.321898 0.416413 0.737774 -7.486135 -11.409531 -13.573523 0.000000 0.000000 0.000000 0.674148 -7.901289 -3.119855 -5.750755 18.077220 1.894213 24.845715 -17.360348 12.453318 -24.644632 3.425182 -5.300279 0.000000 0.000000 0.000000 0.000000 0.000000 0.000000 5.648091 -8.732600 -11.808828 -2.969176 14.472328 4.335098 -22.615727 -13.577623 11.559866 8.154728 4.506176 -4.159674 0.000000 0.000000 0.000000 0.000000 0.000000 0.000000 -6.705933 11.639072 -18.318567 -6.565243 -0.091463 -0.606066 -4.625373 10.957533 5.445229 0.000000 0.000000 0.000000 -7.980031 13.135581 -18.965906 -8.147993 5.918742 2.110283 6.886659 -1.889782 -2.960471 0.000000 0.000000 0.000000
-27.673437 80.096039 328.498506 16.296457 -11.589160 18.116299 0.046911 -1.267720 -15.681385 -0.250126 0.403378 0.764331 -7.570339 -11.563382 -13.958334 0.000000 0.000000 0.000000 -0.649810 -8.446815 -2.827040 -4.287509 20.535648 1.032745 24.469049 -15.169366 12.155599 -20.423438 5.147993 -8.625540 0.000000 0.000000 0.000000 0.000000 0.000000 0.000000 5.783635 -9.691393 -12.311880 -2.130047 14.306579 4.458673 -25.075220 -10.118751 11.573252 14.204713 0.391785 -5.604506 0.000000 0.000000 0.000000 0.000000 0.000000 0.000000 -7.901308 11.874296 -16.019633 -6.541017 -0.078842 -0.678640 -1.665767 2.745587 3.259193 0.000000 0.000000 0.000000 -9.259326 13.760671 -16.502570 -7.855540 5.869088 1.976374 7.384386 -1.468935 -3.375326 0.000000 0.000000 0.000000
-27.354464 79.928214 328.607503 16.697431 -11.910743 16.972576 -0.110384 -1.019574 -14.443115 -0.397314 0.504104 0.761570 -7.535731 -11.710698 -14.056125 0.000000 0.000000 0.000000 -0.622667 -8.618020 -2.803419 -4.291856 21.193945 0.928258 24.121808 -13.926062 11.740797 -17.358590 7.457170 -10.651410 0.000000 0.000000 0.000000 0.000000 0.000000 0.000000 6.611718 -10.800917 -12.679099 -1.707982 13.834385 4.769678 -26.138612 -1.864208 9.711303 18.251148 -6.653910 -3.348611 0.000000 0.000000 0.000000 0.000000 0.000000 0.000000 -8.777316 12.137667 -14.638920 -6.430567 -0.188967 -0.757636 -0.303709 0.351488 2.413246 0.000000 0.000000 0.000000 -10.251409 14.241121 -14.959555 -7.522225 5.832358 1.850372 8.265921 -1.019356 -3.919459 0.000000 0.000000 0.000000
